<svg xmlns="http://www.w3.org/2000/svg" viewBox="0 0 3023 860">
    <g transform="matrix(1 0 0 1 -224.458277 -154.130353)">
        <g transform="matrix(1 0 0 1 0 -590.351212)">
            <g transform="matrix(.955154 0 0 .955154 1285.782706 744.481565)">
                <path fill="#fff" d="M165 397.5V700H55V0h110v302.5h245V0h110v700H410V397.5H165ZM1943.7 700V451c0-96-46-162-111-162s-110 66-110 162v249h-110V0h110v289c0-22 50-105 128-105 122 0 203 105 203 267v249h-110ZM1030.3005 486.0227H702.328c10.2822 75.5512 52.3095 125 108.572 125 38.5055 0 70.3434-23.1613 89.9006-62h118.2651c-28.9723 103.8751-105.0423 167-208.1657 167-133 0-221-105-221-267 0-161 88-265 221-265s221 104 221 265c0 12.6908-.54 25.0318-1.5995 37Zm-324.0312-95h209.2614c-14.7507-62.8049-53.9051-103-104.6307-103-50.7256 0-89.88 40.1951-104.6307 103ZM1101.8 900.0227v-700h104l6 88c0-21 50-104 128-104 122 0 203 104 203 265 0 162-81 267-203 267-78 0-128-83-128-105v289h-110Zm220-289c65 0 111-66 111-162 0-95-46-161-111-161s-110 66-110 161c0 96 45 162 110 162ZM-469.615 525V0h291.5346v700h-116.534L-469.615 525ZM-1111.1553 0h525v525l-175 175h-350V0Z"/>
            </g>
        </g>
    </g>
</svg>
